<svg xmlns="http://www.w3.org/2000/svg" viewBox="0 0 328.84 247.02"><defs><style>.cls-1,.cls-2,.cls-3,.cls-6{fill:none;}.cls-1,.cls-2,.cls-3,.cls-4,.cls-6,.cls-7,.cls-8{stroke:#595757;stroke-linecap:round;}.cls-1,.cls-2{stroke-linejoin:round;}.cls-1,.cls-3,.cls-4{stroke-width:3px;}.cls-3,.cls-4,.cls-6,.cls-7,.cls-8{stroke-miterlimit:10;}.cls-4,.cls-7{fill:#ecedff;}.cls-5{fill:#dcc9e5;}.cls-6,.cls-7,.cls-8{stroke-width:2px;}.cls-8{fill:#e1e2ec;}</style></defs><title>
satellite</title><g id="圖層_2" data-name="圖層 2"><g id="首頁"><polygon class="cls-1" points="324.17 73.21 208.43 130.92 206.39 68.88 327.35 1.5 324.17 73.21"/><line class="cls-1" x1="207.43" y1="100.54" x2="325.72" y2="38.18"/><line class="cls-1" x1="243.91" y1="47.98" x2="244.44" y2="112.96"/><line class="cls-1" x1="284.12" y1="25.58" x2="282.93" y2="93.77"/><line class="cls-2" x1="206.54" y1="73.48" x2="327.11" y2="6.84"/><line class="cls-2" x1="206.69" y1="78.06" x2="326.87" y2="12.15"/><line class="cls-2" x1="206.84" y1="82.61" x2="326.64" y2="17.43"/><line class="cls-2" x1="206.99" y1="87.13" x2="326.41" y2="22.67"/><line class="cls-2" x1="207.14" y1="91.63" x2="326.18" y2="27.87"/><line class="cls-2" x1="207.29" y1="96.1" x2="325.95" y2="33.04"/><line class="cls-2" x1="207.58" y1="104.95" x2="325.49" y2="43.28"/><line class="cls-2" x1="207.72" y1="109.35" x2="325.27" y2="48.35"/><line class="cls-2" x1="207.86" y1="113.71" x2="325.05" y2="53.38"/><line class="cls-2" x1="208.01" y1="118.05" x2="324.82" y2="58.39"/><line class="cls-2" x1="208.15" y1="122.36" x2="324.6" y2="63.36"/><line class="cls-2" x1="208.29" y1="126.65" x2="324.38" y2="68.3"/><line class="cls-2" x1="212.38" y1="128.94" x2="210.51" y2="66.58"/><line class="cls-2" x1="217.94" y1="126.18" x2="216.29" y2="63.36"/><line class="cls-2" x1="223.55" y1="123.38" x2="222.13" y2="60.11"/><line class="cls-2" x1="229.21" y1="120.55" x2="228.04" y2="56.82"/><line class="cls-2" x1="234.94" y1="117.7" x2="234.01" y2="53.49"/><line class="cls-2" x1="240.73" y1="114.81" x2="240.04" y2="50.13"/><line class="cls-2" x1="248.42" y1="110.98" x2="248.06" y2="45.67"/><line class="cls-2" x1="254.35" y1="108.02" x2="254.25" y2="42.22"/><line class="cls-2" x1="260.34" y1="105.03" x2="260.51" y2="38.73"/><line class="cls-2" x1="266.39" y1="102.01" x2="266.83" y2="35.21"/><line class="cls-2" x1="272.52" y1="98.96" x2="273.23" y2="31.64"/><line class="cls-2" x1="278.7" y1="95.88" x2="279.7" y2="28.04"/><line class="cls-2" x1="286.87" y1="91.8" x2="288.25" y2="23.28"/><line class="cls-2" x1="293.21" y1="88.64" x2="294.89" y2="19.58"/><line class="cls-2" x1="299.63" y1="85.44" x2="301.61" y2="15.84"/><line class="cls-2" x1="306.11" y1="82.21" x2="308.4" y2="12.05"/><line class="cls-2" x1="312.67" y1="78.94" x2="315.28" y2="8.22"/><line class="cls-2" x1="319.3" y1="75.63" x2="322.24" y2="4.35"/><polygon class="cls-1" points="164.07 74.16 121.19 99.58 121.19 149.3 164.07 174.15 206.78 149.01 206.78 99.58 164.07 74.16"/><line class="cls-3" x1="200.87" y1="103.32" x2="183.35" y2="113.22"/><line class="cls-3" x1="124.58" y1="101.77" x2="159.53" y2="122.11"/><line class="cls-3" x1="163.98" y1="130.58" x2="163.98" y2="174.15"/><line class="cls-3" x1="174.04" y1="118.4" x2="169.9" y2="120.9"/><ellipse class="cls-4" cx="197.41" cy="144.38" rx="32.76" ry="22.9" transform="translate(7.57 298.57) rotate(-75.27)"/><ellipse class="cls-5" cx="197.98" cy="146.51" rx="16.47" ry="11.52" transform="translate(5.93 300.72) rotate(-75.27)"/><ellipse class="cls-4" cx="216.84" cy="156.07" rx="5.16" ry="3.61" transform="translate(3.62 317.05) rotate(-72.8)"/><polyline class="cls-6" points="215.31 161 177.54 166.22 212.68 157.75 192.09 114.13 218.37 151.14"/><polygon class="cls-1" points="1.5 245.52 134.07 174.01 135.17 108.04 1.79 171.94 1.5 245.52"/><line class="cls-1" x1="140.3" y1="138.23" x2="1.64" y2="208.86"/><line class="cls-1" x1="94.08" y1="127.72" x2="93.21" y2="196.05"/><line class="cls-1" x1="49.75" y1="148.96" x2="49.15" y2="219.82"/><line class="cls-2" x1="135.09" y1="112.78" x2="1.77" y2="177.23"/><line class="cls-2" x1="135.01" y1="117.51" x2="1.75" y2="182.52"/><line class="cls-2" x1="134.94" y1="122.24" x2="1.72" y2="187.8"/><line class="cls-2" x1="134.86" y1="126.97" x2="1.7" y2="193.07"/><line class="cls-2" x1="134.78" y1="131.69" x2="1.68" y2="198.34"/><line class="cls-2" x1="134.7" y1="136.41" x2="1.66" y2="203.61"/><line class="cls-2" x1="134.54" y1="145.84" x2="1.62" y2="214.12"/><line class="cls-2" x1="134.47" y1="150.54" x2="1.6" y2="219.36"/><line class="cls-2" x1="134.39" y1="155.24" x2="1.58" y2="224.61"/><line class="cls-2" x1="134.31" y1="159.94" x2="1.56" y2="229.84"/><line class="cls-2" x1="134.23" y1="164.64" x2="1.54" y2="235.08"/><line class="cls-2" x1="134.15" y1="169.32" x2="1.52" y2="240.3"/><line class="cls-2" x1="129.6" y1="176.42" x2="130.68" y2="110.19"/><line class="cls-2" x1="123.32" y1="179.81" x2="124.36" y2="113.22"/><line class="cls-2" x1="116.96" y1="183.24" x2="117.96" y2="116.28"/><line class="cls-2" x1="110.53" y1="186.71" x2="111.5" y2="119.38"/><line class="cls-2" x1="104.02" y1="190.22" x2="104.95" y2="122.52"/><line class="cls-2" x1="97.44" y1="193.77" x2="98.33" y2="125.69"/><line class="cls-2" x1="88.68" y1="198.5" x2="89.52" y2="129.91"/><line class="cls-2" x1="81.91" y1="202.15" x2="82.71" y2="133.17"/><line class="cls-2" x1="75.06" y1="205.84" x2="75.82" y2="136.47"/><line class="cls-2" x1="68.13" y1="209.58" x2="68.85" y2="139.81"/><line class="cls-2" x1="61.11" y1="213.37" x2="61.79" y2="143.2"/><line class="cls-2" x1="54.01" y1="217.2" x2="54.64" y2="146.62"/><line class="cls-2" x1="44.62" y1="222.26" x2="45.19" y2="151.15"/><line class="cls-2" x1="37.31" y1="226.21" x2="37.84" y2="154.67"/><line class="cls-2" x1="29.91" y1="230.2" x2="30.39" y2="158.24"/><line class="cls-2" x1="22.42" y1="234.24" x2="22.85" y2="161.85"/><line class="cls-2" x1="14.83" y1="238.33" x2="15.21" y2="165.51"/><line class="cls-2" x1="7.15" y1="242.48" x2="7.47" y2="169.22"/><path class="cls-7" d="M131.65,87.47V99.34c0,.61-1,1.11-2.3,1.11s-2.29-.5-2.29-1.11V87.47"/><ellipse class="cls-8" cx="129.35" cy="87.47" rx="2.29" ry="1.11"/><polygon class="cls-5" points="155.29 130.58 143.75 123.54 143.77 117.25 155.31 124.28 155.29 130.58"/><polygon class="cls-5" points="155.31 161.81 160.33 164.85 160.33 152.78 155.31 149.74 155.31 161.81"/></g></g></svg>